<?xml version="1.0" encoding="UTF-8"?>
<svg version="1.1" xmlns="http://www.w3.org/2000/svg" width="1200" height="1200">
<path d="M0 0 C396 0 792 0 1200 0 C1200 396 1200 792 1200 1200 C804 1200 408 1200 0 1200 C0 804 0 408 0 0 Z " fill="#FEFEFE" transform="translate(0,0)"/>
<path d="M0 0 C25.41 0 50.82 0 77 0 C77.33 48.18 77.66 96.36 78 146 C80.97 143.36 83.94 140.72 87 138 C119.54040351 114.37780448 158.93081849 108.09822457 198.0378418 114.09545898 C224.29614362 118.57192235 246.72187033 130.79113038 266 149 C266.73863281 149.67417969 267.47726562 150.34835937 268.23828125 151.04296875 C278.54440606 160.79992172 285.87902042 172.24641657 292.4375 184.75 C293.18157104 186.16853271 293.18157104 186.16853271 293.94067383 187.61572266 C313.5173791 226.0206809 314.05232146 275.37998603 301.41674805 315.97631836 C295.4243648 334.21954988 286.74948305 350.56463489 274 365 C273.16855469 365.97582031 272.33710937 366.95164062 271.48046875 367.95703125 C255.32050914 386.59299284 233.59265711 399.02308033 210 405.8125 C209.33774414 406.00739014 208.67548828 406.20228027 207.99316406 406.40307617 C194.84837798 409.9452994 181.21684851 410.37999142 167.6875 410.3125 C166.54087891 410.30976578 166.54087891 410.30976578 165.37109375 410.30697632 C153.67901699 410.26016043 142.41188519 409.68099526 131 407 C130.22350098 406.82839355 129.44700195 406.65678711 128.64697266 406.47998047 C105.37634472 401.26888728 85.83544565 391.19749825 69 374 C64.69411589 375.56057659 60.85514906 377.72318437 56.9375 380.0625 C56.22070068 380.48732666 55.50390137 380.91215332 54.76538086 381.34985352 C40.85126855 389.62656168 27.02787032 398.06313022 13.234375 406.5390625 C12.39124756 407.05670166 11.54812012 407.57434082 10.67944336 408.10766602 C9.13988814 409.05394859 7.60156943 410.00224689 6.06469727 410.95288086 C1.10990015 414 1.10990015 414 0 414 C0 277.38 0 140.76 0 0 Z " fill="#2491EA" transform="translate(511,368)"/>
<path d="M0 0 C-5.52906706 5.52906706 -14.76350302 4.3176937 -22 4.4375 C-55.67783595 5.35634443 -87.61274985 12.37781658 -118 27 C-119.07314453 27.51602783 -119.07314453 27.51602783 -120.16796875 28.04248047 C-135.65505362 35.60618654 -149.46834422 45.15942818 -162 57 C-163.35008458 58.15064027 -164.70411589 59.2966696 -166.0625 60.4375 C-198.99763447 89.43616421 -214.5710699 133.19811114 -221.1875 175.3125 C-221.35459473 176.37339844 -221.52168945 177.43429687 -221.69384766 178.52734375 C-226.1971302 208.43173701 -224.32631611 238.23512871 -220 268 C-219.82871582 269.18899902 -219.65743164 270.37799805 -219.48095703 271.60302734 C-213.814026 309.25736156 -200.67440605 345.45968322 -185 380 C-184.63583984 380.81339844 -184.27167969 381.62679688 -183.89648438 382.46484375 C-177.76347299 396.12116526 -170.51845083 409.06438985 -163 422 C-162.26667204 423.28110404 -161.53356472 424.56233443 -160.80078125 425.84375 C-149.82661079 444.64429351 -137.39670625 462.85260068 -124 480 C-123.06996246 481.20545918 -122.14027661 482.41118979 -121.2109375 483.6171875 C-112.74162803 494.55386337 -103.86224476 505.09939319 -94.484375 515.26953125 C-93.18894173 516.69328574 -91.89724234 518.12147137 -90.65405273 519.59106445 C-84.97174224 526.28029864 -78.73302976 532.41760819 -72.52124023 538.60913086 C-70.56704376 540.5579687 -68.61824853 542.51209272 -66.66992188 544.46679688 C-60.61628502 550.52401016 -54.55795584 556.48405853 -48 562 C-46.80774582 563.04442576 -45.61764733 564.09131731 -44.4296875 565.140625 C-36.16652284 572.38527981 -27.75251584 579.35465346 -19 586 C-18.31518555 586.52142578 -17.63037109 587.04285156 -16.92480469 587.58007812 C0.94442378 601.12391393 19.52240195 613.87143394 39 625 C39.96655518 625.5583252 39.96655518 625.5583252 40.95263672 626.12792969 C113.56658338 667.9438464 200.80848723 695.71872062 285 680 C285.9187793 679.82871582 286.83755859 679.65743164 287.78417969 679.48095703 C330.11118593 671.1515783 374.28905409 645.4958603 400.4375 610.875 C401.00243164 610.12927734 401.56736328 609.38355469 402.14941406 608.61523438 C413.98563128 592.80199397 423.02589372 575.43309937 430 557 C430.70513953 555.2903459 431.41312157 553.5818591 432.125 551.875 C434.46968158 546.04285085 436.22460945 540.02499558 438 534 C438.33 534 438.66 534 439 534 C440.58469047 588.23162941 416.23081403 641.14613509 379.9609375 680.1953125 C355.76087854 704.83738167 324.63151997 723.11096498 292 734 C290.95199219 734.35320313 289.90398438 734.70640625 288.82421875 735.0703125 C207.84201416 760.18567265 116.21192184 738.88292466 41 705 C40.15131348 704.62311035 39.30262695 704.2462207 38.42822266 703.85791016 C25.8345317 698.24027215 13.87897514 691.60856787 1.95288086 684.69946289 C-0.13811523 683.49603802 -2.23711347 682.30646806 -4.34155273 681.12670898 C-12.61754297 676.48399909 -20.56493362 671.49263617 -28.4375 666.1875 C-29.02194885 665.79570557 -29.60639771 665.40391113 -30.20855713 665.00024414 C-39.31287215 658.89617599 -48.28296346 652.64786779 -57 646 C-57.5578418 645.5781543 -58.11568359 645.15630859 -58.69042969 644.72167969 C-73.46123194 633.54856855 -87.80214211 621.74777703 -101.48828125 609.265625 C-103.58368675 607.37552361 -105.6992316 605.51605809 -107.828125 603.6640625 C-117.92349226 594.84517507 -127.56874136 585.52175109 -137.0625 576.0625 C-137.75206787 575.37752441 -138.44163574 574.69254883 -139.15209961 573.98681641 C-143.04616396 570.080916 -146.75157823 566.06654036 -150.35424805 561.89086914 C-152.79154251 559.09056568 -155.3357689 556.39498826 -157.875 553.6875 C-162.28226211 548.94500684 -166.49064391 544.09950345 -170.54296875 539.046875 C-172.39945546 536.74471342 -174.27495624 534.46817659 -176.17578125 532.203125 C-238.60821467 457.64968889 -282.73861146 363.66774295 -297.5378418 198.95581055 C-292.34746754 145.26945838 -270.34149442 94.04845855 -233 55 C-232.12601562 54.07316406 -231.25203125 53.14632812 -230.3515625 52.19140625 C-170.17504518 -10.01452441 -79.8508924 -13.03139486 0 0 Z " fill="#035FAC" transform="translate(530,231)"/>
<path d="M0 0 C0.97734604 -0.00570007 1.95469208 -0.01140015 2.96165466 -0.01727295 C5.03000828 -0.02668497 7.09837663 -0.03324175 9.16674805 -0.03710938 C12.24752178 -0.04668517 15.32758926 -0.0776901 18.40820312 -0.109375 C32.41789655 -0.1838644 45.91102018 1.05462282 59.74609375 3.203125 C60.93549561 3.37634277 62.12489746 3.54956055 63.3503418 3.72802734 C76.40670264 5.67378458 89.06939698 8.61607923 101.73144531 12.32177734 C105.05260659 13.29273557 108.37972676 14.2417248 111.70703125 15.19140625 C114.09543841 15.88147677 116.48346518 16.57286535 118.87109375 17.265625 C119.97291992 17.58176758 121.07474609 17.89791016 122.20996094 18.22363281 C128.58979524 20.10345706 134.68450677 22.31516014 140.79394531 24.94213867 C143.70209676 26.18433204 146.62972816 27.34917819 149.578125 28.4921875 C177.76322647 39.46917349 204.49045975 52.89397468 229.62304688 69.77880859 C231.8801461 71.29305847 234.14911386 72.78858824 236.41796875 74.28515625 C246.76995118 81.17667883 256.44212637 88.61971513 265.91992188 96.66503906 C268.41067391 98.76286497 270.95401591 100.79299332 273.49609375 102.828125 C279.26557086 107.54146485 284.68607967 112.60549589 290.12304688 117.69335938 C292.20655305 119.63144635 294.31361772 121.54273401 296.42138672 123.4543457 C304.26813565 130.58280167 311.88362211 137.88877138 318.77734375 145.953125 C320.82371261 148.29183227 322.92973764 150.56348251 325.05102539 152.83398438 C330.89071297 159.08865209 336.39139502 165.52508829 341.74609375 172.203125 C342.71720341 173.38408597 343.68996174 174.56369249 344.6640625 175.7421875 C356.72031204 190.36792406 368.1530059 205.48230738 378.74609375 221.203125 C379.37257813 222.11191406 379.9990625 223.02070313 380.64453125 223.95703125 C418.93354823 280.14030311 443.85870902 344.29282673 449.74609375 412.203125 C449.85695313 413.3375 449.9678125 414.471875 450.08203125 415.640625 C454.88150091 472.7153993 442.13021247 529.79832099 404.74609375 574.203125 C384.07162783 598.17514373 359.27223847 614.2543153 329.74609375 625.203125 C328.51632812 625.67621094 327.2865625 626.14929688 326.01953125 626.63671875 C293.56682089 638.39441629 257.78516544 639.04011892 223.80859375 635.828125 C223.14031555 635.76509186 222.47203735 635.70205872 221.7835083 635.63711548 C213.37263348 634.82605477 205.06013261 633.71230274 196.74609375 632.203125 C198.37134671 629.79958189 199.28937869 628.66330642 201.74609375 627.203125 C206.19250062 626.465465 210.62249858 626.55814025 215.12109375 626.578125 C247.55880607 626.08682831 278.11716976 619.82468053 306.74609375 604.203125 C307.80183594 603.63851562 308.85757812 603.07390625 309.9453125 602.4921875 C328.46191678 592.18098041 344.50295355 577.43954591 356.74609375 560.203125 C357.14666992 559.64012695 357.54724609 559.07712891 357.95996094 558.49707031 C371.73108458 538.82241468 380.99271377 514.87444143 384.74609375 491.203125 C384.94477051 490.11209473 384.94477051 490.11209473 385.14746094 488.99902344 C393.50040568 442.3163862 387.21442758 392.66143143 371.74609375 348.203125 C371.43865234 347.31399414 371.13121094 346.42486328 370.81445312 345.50878906 C362.28069526 321.127826 351.31833406 297.96786203 338.22021484 275.71777344 C336.86998473 273.41446603 335.54685261 271.09839783 334.234375 268.7734375 C321.56185859 246.48908439 306.44583485 224.83667643 289.6003418 205.49658203 C287.75259608 203.37421432 285.92822864 201.23561206 284.12573242 199.07470703 C277.01514349 190.58547803 269.48201877 182.62682349 261.62768555 174.82397461 C259.67453887 172.88162016 257.73241755 170.92869542 255.79101562 168.97460938 C248.74373723 161.91990621 241.57043165 155.39345803 233.74609375 149.203125 C232.58165271 148.20873127 231.42421865 147.20600952 230.27734375 146.19140625 C209.16659198 127.52163857 185.31275293 112.17061212 160.80224609 98.37158203 C158.94271593 97.31486019 157.10126231 96.23425575 155.265625 95.13671875 C121.26456515 75.02856507 82.67224178 60.68540903 43.74609375 54.203125 C42.84777832 54.04086426 41.94946289 53.87860352 41.02392578 53.71142578 C28.01070695 51.38703702 15.11842467 50.92057999 1.93359375 50.890625 C1.16398315 50.88694916 0.39437256 50.88327332 -0.39855957 50.87948608 C-38.52008382 50.78431968 -75.58278693 59.33414796 -107.25390625 81.203125 C-108.33671875 81.94820313 -109.41953125 82.69328125 -110.53515625 83.4609375 C-140.33591596 105.22139323 -160.97305887 137.63797983 -170.31640625 173.203125 C-170.62578125 174.193125 -170.93515625 175.183125 -171.25390625 176.203125 C-171.91390625 176.533125 -172.57390625 176.863125 -173.25390625 177.203125 C-174.77809586 136.27581136 -159.0017784 94.07016946 -132.25390625 63.203125 C-131.5475 62.38714844 -130.84109375 61.57117188 -130.11328125 60.73046875 C-115.97307441 44.73621381 -100.69499836 32.76431959 -82.25390625 22.203125 C-81.29822754 21.65011719 -81.29822754 21.65011719 -80.32324219 21.0859375 C-61.46307739 10.36054181 -39.64660068 4.20560843 -18.25390625 1.203125 C-17.05411133 1.0287793 -15.85431641 0.85443359 -14.61816406 0.67480469 C-9.74693673 0.07615092 -4.90307393 0.02278252 0 0 Z " fill="#2591E9" transform="translate(516.25390625,244.796875)"/>
<path d="M0 0 C0.76957031 0.62777344 1.53914062 1.25554688 2.33203125 1.90234375 C3.17378906 2.58167969 4.01554688 3.26101563 4.8828125 3.9609375 C21.69805276 18.27558058 30.35389944 38.19564407 32.33203125 59.90234375 C33.4689359 81.94080305 29.34039407 105.66962865 14.32080078 122.7277832 C12.05501724 125.18942787 9.71368972 127.55184069 7.33203125 129.90234375 C6.65140625 130.58167969 5.97078125 131.26101563 5.26953125 131.9609375 C-3.26159072 139.94109118 -13.48854161 144.83801042 -24.66796875 147.90234375 C-25.41820312 148.12792969 -26.1684375 148.35351562 -26.94140625 148.5859375 C-44.62118035 153.08342389 -67.68481708 150.55002473 -83.66796875 141.90234375 C-103.96928591 129.58253617 -116.8224068 111.98481916 -122.66796875 88.90234375 C-127.42519785 64.2506529 -123.54898296 39.35641905 -109.98046875 18.28125 C-108.31293491 16.03248441 -106.55486021 13.97037679 -104.66796875 11.90234375 C-103.8790625 11.0103125 -103.09015625 10.11828125 -102.27734375 9.19921875 C-95.49209889 1.93781636 -88.50645489 -2.70960784 -79.66796875 -7.09765625 C-78.45753906 -7.72800781 -78.45753906 -7.72800781 -77.22265625 -8.37109375 C-53.7285623 -19.2586007 -20.48925365 -15.52833983 0 0 Z " fill="#FDFEFE" transform="translate(711.66796875,561.09765625)"/>
<path d="M0 0 C25.41 0 50.82 0 77 0 C77 48.18 77 96.36 77 146 C76.67 146 76.34 146 76 146 C76 98.15 76 50.3 76 1 C51.58 1 27.16 1 2 1 C2 136.3 2 271.6 2 411 C2.66 411.33 3.32 411.66 4 412 C2.68 412.66 1.36 413.32 0 414 C0 277.38 0 140.76 0 0 Z " fill="#4A97D7" transform="translate(511,368)"/>
<path d="M0 0 C2.34043452 0.01070469 4.68009648 0.00003496 7.02050781 -0.01269531 C22.14924894 -0.02852108 36.87787573 1.49317699 51.66113281 4.76074219 C52.66595703 4.9734375 53.67078125 5.18613281 54.70605469 5.40527344 C59.8586991 6.51110759 64.92873833 7.73669015 69.97363281 9.26074219 C66.56516372 10.39706432 64.22924278 10.10628152 60.74707031 9.33496094 C59.71324219 9.11517578 58.67941406 8.89539063 57.61425781 8.66894531 C55.4917882 8.20052947 53.36938842 7.73179711 51.24707031 7.26269531 C36.49737133 4.12657672 21.85457962 2.91766288 6.79638672 3 C4.47369314 3.01074191 2.15177246 3.00000489 -0.17089844 2.98730469 C-14.81229864 2.97315924 -29.15957534 4.44320886 -43.51074219 7.37988281 C-46.96001736 8.0439674 -49.68568038 8.53705586 -53.02636719 7.26074219 C-52.02636719 6.26074219 -52.02636719 6.26074219 -48.46386719 6.19824219 C-47.32949219 6.21886719 -46.19511719 6.23949219 -45.02636719 6.26074219 C-45.02636719 5.60074219 -45.02636719 4.94074219 -45.02636719 4.26074219 C-44.25550781 4.20015625 -43.48464844 4.13957031 -42.69042969 4.07714844 C-41.68753906 3.99335938 -40.68464844 3.90957031 -39.65136719 3.82324219 C-38.65363281 3.74203125 -37.65589844 3.66082031 -36.62792969 3.57714844 C-34.04709106 3.41108593 -34.04709106 3.41108593 -32.02636719 2.26074219 C-21.36174601 0.4198356 -10.79942172 -0.05842384 0 0 Z " fill="#4294D7" transform="translate(514.0263671875,292.7392578125)"/>
<path d="M0 0 C1.18851563 0.00902344 2.37703125 0.01804687 3.6015625 0.02734375 C4.51679687 0.03894531 5.43203125 0.05054688 6.375 0.0625 C6.375 0.3925 6.375 0.7225 6.375 1.0625 C-9.02796237 4.52632407 -24.95422214 5.23908018 -40.6875 5.25 C-42.3262207 5.2512085 -42.3262207 5.2512085 -43.99804688 5.25244141 C-51.5752354 5.20081005 -59.07849724 4.7327004 -66.625 4.0625 C-63.52953572 2.42298422 -61.52380405 1.81186996 -58 1.875 C-57.22398437 1.88144531 -56.44796875 1.88789062 -55.6484375 1.89453125 C-53.07329947 2.03759447 -50.56373342 2.29964121 -48.00390625 2.59765625 C-42.35643026 3.18077389 -36.84786247 2.99039565 -31.1875 2.6875 C-30.22779297 2.64367187 -29.26808594 2.59984375 -28.27929688 2.5546875 C-18.78961495 2.09458171 -9.26231055 -0.09080697 0 0 Z " fill="#4E9DDE" transform="translate(810.625,876.9375)"/>
<path d="M0 0 C1.65708984 0.23529419 1.65708984 0.23529419 3.34765625 0.4753418 C10.84966757 1.65034883 17.81220873 3.63683209 24.9375 6.25 C24.9375 6.58 24.9375 6.91 24.9375 7.25 C21.43557649 6.82119304 18.13423906 6.30803441 14.74609375 5.30859375 C-0.42336844 1.09226118 -17.4691695 -0.86993919 -33.0625 1.25 C-35.01899208 1.35542501 -36.97821872 1.42362407 -38.9375 1.4375 C-40.32582031 1.45876953 -40.32582031 1.45876953 -41.7421875 1.48046875 C-44.0625 1.25 -44.0625 1.25 -46.0625 -0.75 C-30.64565764 -2.77188097 -15.35137767 -2.22285746 0 0 Z " fill="#4092D6" transform="translate(706.0625,481.75)"/>
<path d="M0 0 C1.58850204 4.06656522 0.47515479 7.88346101 -0.375 12 C-0.51421875 12.7115625 -0.6534375 13.423125 -0.796875 14.15625 C-1.32561811 16.8298944 -1.85437543 19.48603092 -2.59765625 22.109375 C-3.17791807 24.83604218 -3.09274359 27.46759007 -3.0625 30.25 C-3.04896484 31.86648438 -3.04896484 31.86648438 -3.03515625 33.515625 C-3.02355469 34.33546875 -3.01195312 35.1553125 -3 36 C-2.01 32.37 -1.02 28.74 0 25 C0.66 25 1.32 25 2 25 C2 23.68 2 22.36 2 21 C2.66 21 3.32 21 4 21 C2.33193511 26.66668852 0.59422634 32.295641 -1.3125 37.88671875 C-1.97103594 39.91096842 -2.52565777 41.94070677 -3.0625 44 C-3.371875 44.99 -3.68125 45.98 -4 47 C-4.99 47.495 -4.99 47.495 -6 48 C-6.61322108 31.53387836 -4.03379092 15.93490455 0 0 Z " fill="#4795D6" transform="translate(349,374)"/>
<path d="M0 0 C0.99 0.495 0.99 0.495 2 1 C-3.85943723 4.79140056 -9.75424564 6.25031374 -16.5625 7.5625 C-17.84253906 7.81128906 -19.12257813 8.06007813 -20.44140625 8.31640625 C-22.20291016 8.65478516 -22.20291016 8.65478516 -24 9 C-24.8353125 9.17273438 -25.670625 9.34546875 -26.53125 9.5234375 C-42.90827139 12.68482454 -59.40500196 12.21202454 -76 12 C-76 11.67 -76 11.34 -76 11 C-75.30253662 10.98541748 -74.60507324 10.97083496 -73.88647461 10.95581055 C-50.13708899 10.40593931 -26.19246186 9.0416389 -3.5625 1.1875 C-2.386875 0.795625 -1.21125 0.40375 0 0 Z " fill="#3E8FD2" transform="translate(796,861)"/>
<path d="M0 0 C2.04190981 0.14238837 4.08352045 0.28907028 6.125 0.4375 C7.26195312 0.51871094 8.39890625 0.59992188 9.5703125 0.68359375 C12.7540478 0.97730965 15.85510907 1.43124313 19 2 C15.54731836 5.45268164 11.20257218 5.92305524 6.45141602 6.22705078 C4.62114868 6.21134033 4.62114868 6.21134033 2.75390625 6.1953125 C2.09792953 6.1924826 1.44195282 6.18965271 0.76609802 6.18673706 C-1.30196409 6.17565984 -3.36957173 6.15058063 -5.4375 6.125 C-6.85090515 6.11495402 -8.26431717 6.10583102 -9.67773438 6.09765625 C-13.11863394 6.07576184 -16.55927252 6.04132051 -20 6 C-20 5.67 -20 5.34 -20 5 C-9.3120232 4.26740918 1.28539694 3.85963402 12 4 C12 3.34 12 2.68 12 2 C8.37 2 4.74 2 1 2 C0.67 1.34 0.34 0.68 0 0 Z " fill="#1C619C" transform="translate(511,229)"/>
<path d="M0 0 C0.66 0.33 1.32 0.66 2 1 C-3.04897967 6.94736382 -8.3918017 12.51607898 -13.9375 18 C-15.10635742 19.16208984 -15.10635742 19.16208984 -16.29882812 20.34765625 C-18.1969242 22.23410757 -20.09733149 24.11816245 -22 26 C-22.66 25.67 -23.32 25.34 -24 25 C-16.2132704 16.44011994 -8.24809219 8.1164737 0 0 Z " fill="#E7FAFE" transform="translate(398,333)"/>
<path d="M0 0 C0.33 0 0.66 0 1 0 C1.28925539 5.49585235 0.36902269 10.69378797 -1 16 C-1.33 16.33 -1.66 16.66 -2 17 C-2.08851529 19.59359322 -2.11525945 22.16039691 -2.09765625 24.75390625 C-2.09553383 25.91707619 -2.09553383 25.91707619 -2.09336853 27.10374451 C-2.08775345 29.59003494 -2.07519846 32.0762366 -2.0625 34.5625 C-2.05748694 36.24413933 -2.0529237 37.92578006 -2.04882812 39.60742188 C-2.03777913 43.73831566 -2.02050445 47.86914276 -2 52 C-2.33 52 -2.66 52 -3 52 C-4.31249721 45.03986758 -4.28361336 38.12332229 -4.3125 31.0625 C-4.31644775 30.36768524 -4.32039551 29.67287048 -4.32446289 28.95700073 C-4.35145194 18.82686478 -3.80072308 9.5187752 0 0 Z " fill="#DCF6FE" transform="translate(592,598)"/>
<path d="M0 0 C0.33 0.99 0.66 1.98 1 3 C-1.61691164 5.67470955 -4.24481708 8.33834481 -6.875 11 C-7.62136719 11.763125 -8.36773437 12.52625 -9.13671875 13.3125 C-9.85214844 14.034375 -10.56757813 14.75625 -11.3046875 15.5 C-11.96452637 16.1703125 -12.62436523 16.840625 -13.30419922 17.53125 C-15 19 -15 19 -17 19 C-17.2475 19.61875 -17.495 20.2375 -17.75 20.875 C-19.22047178 23.37480203 -20.41403076 23.83316022 -23 25 C-18.60930075 18.70859298 -13.60155074 13.35588098 -8.125 8 C-7.34125 7.22527344 -6.5575 6.45054687 -5.75 5.65234375 C-3.83786662 3.76352907 -1.92119818 1.87958609 0 0 Z " fill="#1762A2" transform="translate(308,275)"/>
<path d="M0 0 C0 0.33 0 0.66 0 1 C-24.15289939 3.80323806 -24.15289939 3.80323806 -30 3 C-30.66 2.34 -31.32 1.68 -32 1 C-21.37719894 -0.39315424 -10.68873373 -0.09675083 0 0 Z " fill="#53A2E2" transform="translate(692,480)"/>
<path d="M0 0 C0.66 0.33 1.32 0.66 2 1 C-2.99686938 6.64461171 -8.05153468 12.16100977 -13.46875 17.40625 C-15.09346614 18.93927006 -15.09346614 18.93927006 -16 21 C-16.66 20.67 -17.32 20.34 -18 20 C-12.65560611 12.61269787 -6.53001173 6.31746162 0 0 Z " fill="#E6FAFE" transform="translate(618,562)"/>
<path d="M0 0 C0.33 0.99 0.66 1.98 1 3 C-0.39583333 4.39583333 -1.79166667 5.79166667 -3.1875 7.1875 C-4.00992187 8.01121094 -4.83234375 8.83492188 -5.6796875 9.68359375 C-7.38102482 11.38206687 -9.09360261 13.06930033 -10.8125 14.75 C-13.09285306 17.0129372 -13.09285306 17.0129372 -15.1875 19.8125 C-15.785625 20.534375 -16.38375 21.25625 -17 22 C-17.66 22 -18.32 22 -19 22 C-17.37165468 18.04274219 -14.63881189 15.19806084 -11.75 12.125 C-11.25781982 11.59487305 -10.76563965 11.06474609 -10.25854492 10.51855469 C-6.91571103 6.93273584 -3.51395836 3.41898651 0 0 Z " fill="#3D93D9" transform="translate(400,291)"/>
<path d="M0 0 C-5.88990549 3.81111532 -11.91579211 5.29367358 -18.75 6.5625 C-23.5078881 7.34885872 -23.5078881 7.34885872 -28 9 C-30.125 8.0625 -30.125 8.0625 -32 7 C-31.11646851 6.79636841 -31.11646851 6.79636841 -30.21508789 6.58862305 C-27.49650503 5.95937324 -24.77951709 5.32347516 -22.0625 4.6875 C-21.13630859 4.47416016 -20.21011719 4.26082031 -19.25585938 4.04101562 C-13.96515323 2.79723558 -8.86967567 1.36512386 -3.77514648 -0.53588867 C-2 -1 -2 -1 0 0 Z " fill="#4495D7" transform="translate(798,862)"/>
<path d="M0 0 C0.66 0 1.32 0 2 0 C2.06058594 0.69867187 2.12117187 1.39734375 2.18359375 2.1171875 C2.26738281 3.02726563 2.35117187 3.93734375 2.4375 4.875 C2.55931641 6.23238281 2.55931641 6.23238281 2.68359375 7.6171875 C2.86989285 10.01110861 2.86989285 10.01110861 4 12 C4.07116382 14.37402501 4.08409085 16.75000677 4.0625 19.125 C4.05347656 20.40632812 4.04445313 21.68765625 4.03515625 23.0078125 C4.02355469 23.99523437 4.01195312 24.98265625 4 26 C3.67 26 3.34 26 3 26 C2.49418146 22.60500696 1.99637756 19.20888518 1.5 15.8125 C1.35691406 14.85279297 1.21382812 13.89308594 1.06640625 12.90429688 C0.93105469 11.97294922 0.79570313 11.04160156 0.65625 10.08203125 C0.53056641 9.22843018 0.40488281 8.3748291 0.27539062 7.49536133 C-0.00272556 4.97530325 -0.047608 2.53314218 0 0 Z " fill="#4596D8" transform="translate(901,639)"/>
<path d="M0 0 C1.19338989 0.13184692 1.19338989 0.13184692 2.41088867 0.26635742 C3.28422852 0.35852539 4.15756836 0.45069336 5.05737305 0.5456543 C5.97196289 0.65329102 6.88655273 0.76092773 7.82885742 0.87182617 C8.7318457 0.96786133 9.63483398 1.06389648 10.56518555 1.1628418 C14.76796988 1.62295558 18.87612669 2.18975369 23.01635742 3.05932617 C23.01635742 3.38932617 23.01635742 3.71932617 23.01635742 4.05932617 C21.05809869 4.08627469 19.09973516 4.10569836 17.14135742 4.12182617 C15.50553711 4.13922852 15.50553711 4.13922852 13.83666992 4.15698242 C11.01635742 4.05932617 11.01635742 4.05932617 9.01635742 3.05932617 C6.81199342 2.82982298 4.6024357 2.64856684 2.39135742 2.49682617 C1.2028418 2.41303711 0.01432617 2.32924805 -1.21020508 2.24291992 C-2.58305664 2.15204102 -2.58305664 2.15204102 -3.98364258 2.05932617 C-1.98364258 0.05932617 -1.98364258 0.05932617 0 0 Z " fill="#2368A3" transform="translate(485.983642578125,224.940673828125)"/>
<path d="M0 0 C0.33 0.33 0.66 0.66 1 1 C3.52596259 1.23653523 6.03107207 1.42173692 8.5625 1.5625 C9.27341797 1.60568359 9.98433594 1.64886719 10.71679688 1.69335938 C12.47761912 1.79971777 14.2387832 1.90038846 16 2 C14 4 14 4 10.8046875 4.01171875 C9.50789062 3.90472656 8.21109375 3.79773438 6.875 3.6875 C5.86264282 3.60737671 5.86264282 3.60737671 4.82983398 3.52563477 C0.20018454 3.14628315 -4.40216708 2.65683327 -9 2 C-5.55892734 -0.29404844 -4.03160191 -0.26293056 0 0 Z " fill="#3173AA" transform="translate(705,971)"/>
<path d="M0 0 C0.33 0 0.66 0 1 0 C1.47347788 8.68042778 -0.89283091 15.37240026 -5 23 C-5.66 22.67 -6.32 22.34 -7 22 C-6.61908203 21.12601563 -6.61908203 21.12601563 -6.23046875 20.234375 C-3.45352943 13.61964313 -1.58541432 6.99023588 0 0 Z " fill="#4496D9" transform="translate(742,646)"/>
<path d="M0 0 C-1.546875 0.433125 -1.546875 0.433125 -3.125 0.875 C-7.46166047 2.11404585 -11.72465271 3.51156912 -15.9375 5.125 C-19.40765039 6.11647154 -22.408726 6.14365096 -26 6 C-22.7380964 3.8253976 -20.01429181 2.99974114 -16.25 1.9375 C-14.46335937 1.42509766 -14.46335937 1.42509766 -12.640625 0.90234375 C-2.98278336 -1.49139168 -2.98278336 -1.49139168 0 0 Z " fill="#4696D8" transform="translate(657,483)"/>
<path d="M0 0 C0.33 0 0.66 0 1 0 C1.12036664 5.77759884 0.8320582 11.27959989 0 17 C-0.66 16.01 -1.32 15.02 -2 14 C-2.99 14.99 -3.98 15.98 -5 17 C-4.80664062 16.35933594 -4.61328125 15.71867188 -4.4140625 15.05859375 C-2.9059252 10.04889015 -1.42282214 5.03460143 0 0 Z " fill="#3D74A3" transform="translate(968,765)"/>
<path d="M0 0 C-1.11590437 3.3477131 -2.14896141 4.32708997 -4.75 6.625 C-5.42546875 7.23601562 -6.1009375 7.84703125 -6.796875 8.4765625 C-9.23260495 10.16084385 -11.08760812 10.62322203 -14 11 C-3.32352941 0 -3.32352941 0 0 0 Z " fill="#3F95DC" transform="translate(415,280)"/>
<path d="M0 0 C-2.70649269 1.69155793 -5.0661133 2.2150566 -8.1875 2.5625 C-11.78190939 2.57461534 -11.78190939 2.57461534 -13 4 C-14.68608966 4.07205511 -16.37500659 4.08386068 -18.0625 4.0625 C-18.98160156 4.05347656 -19.90070313 4.04445312 -20.84765625 4.03515625 C-21.55792969 4.02355469 -22.26820313 4.01195312 -23 4 C-23 3.67 -23 3.34 -23 3 C-7.25512528 -0.44419134 -7.25512528 -0.44419134 0 0 Z " fill="#4897D9" transform="translate(500,247)"/>
<path d="M0 0 C0.33 0 0.66 0 1 0 C1.29468643 5.59904212 1.28247828 13.38902609 -2.57421875 17.80078125 C-3.04472656 18.19652344 -3.51523437 18.59226562 -4 19 C-3.46048934 12.31006781 -2.11293829 6.36539272 0 0 Z " fill="#C9EAFA" transform="translate(592,598)"/>
<path d="M0 0 C0.33 0.66 0.66 1.32 1 2 C0.0727001 3.70818403 -0.94712186 5.36622358 -2 7 C-2.31453125 7.60972656 -2.6290625 8.21945312 -2.953125 8.84765625 C-5.54073555 13.84831633 -5.54073555 13.84831633 -8.12890625 14.703125 C-8.74636719 14.80109375 -9.36382813 14.8990625 -10 15 C-8.89789095 13.24870343 -7.79322568 11.49901536 -6.6875 9.75 C-6.07261719 8.77546875 -5.45773437 7.8009375 -4.82421875 6.796875 C-3.29524241 4.45266287 -1.71179023 2.21215968 0 0 Z " fill="#4596DA" transform="translate(877,799)"/>
<path d="M0 0 C2.33944736 0.28730055 4.6739143 0.61936779 7 1 C7 1.33 7 1.66 7 2 C4.77092605 2.47959778 2.54173703 2.9586608 0.3125 3.4375 C-0.92886719 3.70433594 -2.17023437 3.97117187 -3.44921875 4.24609375 C-6.29612015 4.85055136 -9.14455626 5.43764684 -12 6 C-12 5.34 -12 4.68 -12 4 C-11.21753906 3.79503906 -10.43507813 3.59007812 -9.62890625 3.37890625 C-8.61699219 3.10949219 -7.60507812 2.84007812 -6.5625 2.5625 C-5.55316406 2.29566406 -4.54382813 2.02882813 -3.50390625 1.75390625 C-1.08247999 1.24021923 -1.08247999 1.24021923 0 0 Z " fill="#4496D8" transform="translate(646,547)"/>
<path d="M0 0 C0.66 0.33 1.32 0.66 2 1 C0.59627198 2.20276695 -0.82352097 3.38680519 -2.25 4.5625 C-3.43335938 5.55443359 -3.43335938 5.55443359 -4.640625 6.56640625 C-7 8 -7 8 -9.296875 7.71484375 C-9.85890625 7.47894531 -10.4209375 7.24304688 -11 7 C-9.21475351 5.80286983 -7.4215972 4.61752721 -5.625 3.4375 C-4.62726562 2.77621094 -3.62953125 2.11492187 -2.6015625 1.43359375 C-1.74304688 0.96050781 -0.88453125 0.48742187 0 0 Z " fill="#4095DA" transform="translate(612,497)"/>
<path d="M0 0 C0 0.99 0 1.98 0 3 C-2.046875 4.7890625 -2.046875 4.7890625 -4.75 6.625 C-5.63171875 7.23601562 -6.5134375 7.84703125 -7.421875 8.4765625 C-9.70621979 9.82640261 -11.41210012 10.55255937 -14 11 C-9.85989729 6.45924219 -5.17609824 3.28157862 0 0 Z " fill="#1D64A0" transform="translate(331,258)"/>
<path d="M0 0 C3.91939465 3.80411834 7.49102731 7.81576108 11 12 C10.01 12 9.02 12 8 12 C5.95703125 9.8828125 5.95703125 9.8828125 3.8125 7.125 C3.09707031 6.22007812 2.38164062 5.31515625 1.64453125 4.3828125 C0 2 0 2 0 0 Z " fill="#2368A3" transform="translate(419,729)"/>
<path d="M0 0 C0.33 0 0.66 0 1 0 C1.05395478 1.62463842 1.09277195 3.24978541 1.125 4.875 C1.14820313 5.77992188 1.17140625 6.68484375 1.1953125 7.6171875 C1 10 1 10 -1 12 C-1 10.68 -1 9.36 -1 8 C-1.66 8 -2.32 8 -3 8 C-2.690625 7.236875 -2.38125 6.47375 -2.0625 5.6875 C-1.32106407 3.81210323 -0.63771783 1.91315348 0 0 Z " fill="#0A5CA3" transform="translate(966,776)"/>
<path d="M0 0 C2.99220268 1.36370299 5.29026529 2.94908083 7.75 5.125 C8.67039062 5.93324219 8.67039062 5.93324219 9.609375 6.7578125 C10.06828125 7.16773438 10.5271875 7.57765625 11 8 C10.34 8.66 9.68 9.32 9 10 C7.49702124 8.52386015 5.99768715 7.04400843 4.5 5.5625 C3.6646875 4.73878906 2.829375 3.91507813 1.96875 3.06640625 C0 1 0 1 0 0 Z " fill="#2368A4" transform="translate(415,827)"/>
<path d="M0 0 C0.33 0 0.66 0 1 0 C1.08121924 1.60332791 1.13929134 3.20784026 1.1875 4.8125 C1.23970703 6.15248047 1.23970703 6.15248047 1.29296875 7.51953125 C0.95081002 10.41647515 0.24606427 11.22555028 -2 13 C-1.48041715 8.62065881 -0.94324258 4.31196609 0 0 Z " fill="#CDECFA" transform="translate(962,731)"/>
<path d="M0 0 C-4.95 1.485 -4.95 1.485 -10 3 C-9.67 2.01 -9.34 1.02 -9 0 C-5.32431536 -0.91892116 -3.83619425 -0.95904856 0 0 Z " fill="#C9E4F2" transform="translate(840,905)"/>
<path d="M0 0 C2.31 1.98 4.62 3.96 7 6 C6.34 6.66 5.68 7.32 5 8 C0 2.25 0 2.25 0 0 Z " fill="#2369A5" transform="translate(431,743)"/>
</svg>
